<mxfile host="app.diagrams.net" modified="2023-09-14T07:27:32.768Z" agent="Mozilla/5.0 (Macintosh; Intel Mac OS X 10_15_7) AppleWebKit/537.36 (KHTML, like Gecko) Chrome/117.0.0.0 Safari/537.36" etag="5Kv98Ax8LtyJ41LjiHnp" version="21.7.5" type="github">
  <diagram name="페이지-1" id="5dOCX8ng8D2ySeOFGCFB">
    <mxGraphModel dx="1242" dy="768" grid="1" gridSize="10" guides="1" tooltips="1" connect="1" arrows="1" fold="1" page="1" pageScale="1" pageWidth="827" pageHeight="1169" math="0" shadow="0">
      <root>
        <mxCell id="0" />
        <mxCell id="1" parent="0" />
        <mxCell id="bxT5_tOWnEgwrv6G1S_7-7" value="ValidityCheckMediator" style="swimlane;whiteSpace=wrap;html=1;" vertex="1" parent="1">
          <mxGeometry x="30" y="280" width="210" height="170" as="geometry" />
        </mxCell>
        <mxCell id="bxT5_tOWnEgwrv6G1S_7-8" value="# checkers: Queue&amp;lt;..&amp;gt;&lt;br&gt;&lt;br&gt;+ addChecker(Activity???): Boolean&lt;br&gt;+ removeChecker(): Unit/Boolean" style="text;html=1;align=center;verticalAlign=middle;resizable=0;points=[];autosize=1;strokeColor=none;fillColor=none;" vertex="1" parent="bxT5_tOWnEgwrv6G1S_7-7">
          <mxGeometry x="-7.5" y="60" width="220" height="70" as="geometry" />
        </mxCell>
        <mxCell id="bxT5_tOWnEgwrv6G1S_7-9" value="AppVerificationUtils" style="swimlane;whiteSpace=wrap;html=1;" vertex="1" parent="1">
          <mxGeometry x="260" y="140" width="360" height="200" as="geometry" />
        </mxCell>
        <mxCell id="bxT5_tOWnEgwrv6G1S_7-10" value="+ checkAppValidity2(AppVerificationArgs, String) : Completable" style="text;html=1;align=center;verticalAlign=middle;resizable=0;points=[];autosize=1;strokeColor=none;fillColor=none;" vertex="1" parent="bxT5_tOWnEgwrv6G1S_7-9">
          <mxGeometry y="85" width="360" height="30" as="geometry" />
        </mxCell>
      </root>
    </mxGraphModel>
  </diagram>
</mxfile>
